<?xml version="1.0" standalone="no"?>
<!DOCTYPE svg PUBLIC "-//W3C//DTD SVG 20010904//EN" "http://www.w3.org/TR/2001/REC-SVG-20010904/DTD/svg10.dtd">
<svg version="1.0" xmlns="http://www.w3.org/2000/svg" width="119.000000pt" height="189.000000pt" viewBox="0 0 119.000000 189.000000"
 preserveAspectRatio="xMidYMid meet">
<g transform="translate(0.000000,189.000000) scale(0.100000,-0.100000)"  fill="#ffffff" stroke="none">
    <path d="M42 1563 l3 -308 278 -2 c153 0 280 -3 283 -5 4 -5 -231 -534 -262
        -591 -15 -27 -14 -32 41 -145 31 -64 64 -134 72 -155 8 -20 20 -37 25 -37 5 0
        8 -6 5 -12 -2 -7 6 -29 18 -49 13 -19 25 -44 28 -55 3 -14 5 -12 6 9 0 15 -3
        27 -8 27 -16 0 -32 60 -21 80 11 20 47 20 42 -1 -2 -10 0 -10 11 0 12 9 16 7
        21 -11 4 -18 8 -20 15 -10 7 12 12 12 30 0 17 -10 20 -19 16 -43 l-6 -30 26
        29 c37 40 46 27 16 -24 -4 -8 -14 -31 -21 -50 -14 -41 -24 -83 -14 -60 4 8 38
        80 76 158 37 79 68 145 68 147 0 1 25 56 56 121 125 264 307 661 314 686 7 23
        -12 74 -122 315 -71 159 -139 296 -150 306 -19 16 -54 17 -434 17 l-414 0 2
        -307z"/>
</g>
</svg>
