<?xml version="1.0" standalone="no"?>
<!DOCTYPE svg PUBLIC "-//W3C//DTD SVG 20010904//EN" "http://www.w3.org/TR/2001/REC-SVG-20010904/DTD/svg10.dtd">
<svg version="1.0" xmlns="http://www.w3.org/2000/svg" width="302.000000pt" height="217.000000pt" viewBox="0 0 302.000000 217.000000"
 preserveAspectRatio="xMidYMid meet">
<g transform="translate(0.000000,217.000000) scale(0.100000,-0.100000)" fill="#ffffff" stroke="none">
    <path d="M1365 2036 c-164 -52 -168 -56 -530 -531 -109 -143 -201 -262 -205
        -265 -10 -7 -61 -100 -55 -100 2 0 1 -10 -4 -22 -4 -13 -11 -40 -15 -60 l-7
        -38 240 0 239 0 39 49 c21 26 92 119 158 206 66 87 135 174 153 194 61 67 61
        67 64 340 2 138 1 251 -2 250 -3 0 -37 -11 -75 -23z"/>
    <path d="M1530 1809 c0 -163 4 -247 12 -262 10 -20 189 -258 213 -283 5 -6 51
        -63 100 -127 l90 -116 242 0 241 -1 -12 53 c-7 28 -20 70 -30 91 -16 38 -184
        265 -312 421 -36 44 -110 140 -166 214 -80 106 -113 141 -161 172 -54 35 -167
        79 -203 79 -12 0 -14 -41 -14 -241z"/>
    <path d="M550 926 c0 -71 -30 -66 411 -66 l399 0 0 50 0 50 -405 0 -405 0 0
        -34z"/>
    <path d="M1620 910 l0 -50 400 0 c384 0 400 1 400 19 0 10 3 33 6 50 l7 31
        -407 0 -406 0 0 -50z"/>
    <path d="M596 760 l24 -50 370 0 370 0 0 50 0 50 -394 0 -394 0 24 -50z"/>
    <path d="M1620 760 l0 -50 363 0 363 0 22 44 c12 24 22 46 22 50 0 3 -173 6
        -385 6 l-385 0 0 -50z"/>
    <path d="M690 635 c18 -22 94 -64 158 -87 50 -19 85 -22 285 -26 l227 -4 0 66
        0 66 -341 0 c-298 0 -340 -2 -329 -15z"/>
    <path d="M1620 585 l0 -65 188 0 c104 0 215 5 247 11 59 11 168 61 215 98 l25
        21 -337 0 -338 0 0 -65z"/>
    <path d="M685 282 c-56 -26 -79 -73 -73 -142 5 -46 11 -59 42 -87 41 -38 95
        -44 146 -18 27 14 30 14 30 0 0 -9 9 -15 25 -15 24 0 25 2 25 75 l0 75 -60 0
        c-57 0 -60 -1 -60 -25 0 -18 5 -25 20 -25 13 0 18 -5 14 -15 -10 -26 -71 -19
        -90 10 -21 32 -11 90 17 106 23 12 69 4 69 -11 0 -6 20 -10 45 -10 25 0 45 5
        45 10 0 6 -15 26 -32 45 -42 45 -103 55 -163 27z"/>
    <path d="M2763 289 c-101 -29 -123 -186 -34 -246 40 -27 106 -31 139 -7 20 14
        22 14 22 -1 0 -12 7 -15 28 -13 26 3 27 5 30 76 l3 72 -61 0 c-57 0 -60 -1
        -60 -25 0 -16 6 -25 16 -25 28 0 8 -25 -22 -28 -40 -3 -54 8 -61 51 -10 66 50
        116 87 72 18 -21 90 -20 90 1 0 24 -55 70 -91 78 -38 7 -45 7 -86 -5z"/>
    <path d="M40 155 l0 -135 110 0 110 0 0 35 0 35 -65 0 c-58 0 -65 2 -65 20 0
        18 7 20 55 20 54 0 55 0 55 30 0 30 -1 30 -55 30 -48 0 -55 2 -55 20 0 18 7
        20 65 20 l65 0 0 30 0 30 -110 0 -110 0 0 -135z"/>
    <path d="M302 158 l3 -133 44 -3 43 -3 -4 70 c-2 39 -2 71 -1 71 2 0 24 -32
        49 -70 45 -67 49 -70 85 -70 l39 0 0 135 0 135 -40 0 -39 0 -3 -67 -3 -67 -44
        67 c-43 66 -44 67 -87 67 l-45 0 3 -132z"/>
    <path d="M940 154 l0 -135 43 3 42 3 2 133 1 132 -44 0 -44 0 0 -136z"/>
    <path d="M1080 155 l0 -135 40 0 40 0 0 73 0 72 48 -73 c46 -71 48 -72 87 -70
        l40 3 3 133 3 132 -47 0 -46 0 4 -70 c2 -39 3 -70 2 -70 -1 0 -22 32 -48 70
        -44 67 -48 70 -86 70 l-40 0 0 -135z"/>
    <path d="M1400 155 l0 -135 110 0 110 0 0 35 0 35 -65 0 c-58 0 -65 2 -65 20
        0 18 7 20 55 20 54 0 55 0 55 30 0 30 -1 30 -55 30 -48 0 -55 2 -55 20 0 18 7
        20 65 20 l65 0 0 30 0 30 -110 0 -110 0 0 -135z"/>
    <path d="M1670 155 l0 -135 110 0 110 0 0 35 0 35 -64 0 c-55 0 -64 3 -69 20
        -5 18 0 20 54 20 59 0 59 0 59 30 0 30 -1 30 -54 30 -37 0 -56 4 -59 14 -9 22
        2 26 70 26 l63 0 0 30 0 30 -110 0 -110 0 0 -135z"/>
    <path d="M1940 156 l0 -136 40 0 40 0 0 50 c0 48 1 50 29 50 35 0 48 -15 53
        -60 3 -34 5 -35 47 -38 l44 -3 -5 52 c-4 36 -12 58 -25 69 -19 15 -19 16 -1
        30 25 19 27 75 4 98 -13 13 -40 18 -121 20 l-105 4 0 -136z"/>
    <path d="M2238 268 c-2 -13 -2 -74 0 -135 l3 -113 40 0 39 0 0 135 0 135 -39
        0 c-33 0 -40 -4 -43 -22z"/>
    <path d="M2372 158 l3 -133 43 -3 44 -3 -4 69 c-1 39 0 68 3 66 4 -2 26 -33
        50 -69 41 -61 47 -65 82 -65 l37 0 0 135 0 135 -40 0 -39 0 -3 -67 -3 -67 -44
        67 c-43 66 -44 67 -87 67 l-45 0 3 -132z"/>
</g>
</svg>
