<?xml version="1.0" standalone="no"?>
<!DOCTYPE svg PUBLIC "-//W3C//DTD SVG 20010904//EN" "http://www.w3.org/TR/2001/REC-SVG-20010904/DTD/svg10.dtd">
<svg version="1.0" xmlns="http://www.w3.org/2000/svg"  width="388.000000pt" height="390.000000pt" viewBox="0 0 388.000000 390.000000"
 preserveAspectRatio="xMidYMid meet">
<g transform="translate(0.000000,390.000000) scale(0.100000,-0.100000)"  fill="#ffffff" stroke="none">
    <path d="M226 3849 c-80 -19 -172 -103 -194 -177 -9 -29 -12 -467 -12 -1748
        l0 -1709 24 -50 c25 -55 89 -118 145 -143 33 -16 177 -17 1751 -17 l1715 0 50
        23 c61 28 98 62 133 122 l27 45 0 1735 0 1735 -27 45 c-35 60 -72 94 -133 122
        l-50 23 -1695 2 c-1007 0 -1711 -3 -1734 -8z m768 -539 c76 -29 139 -88 178
        -168 29 -59 33 -76 33 -147 0 -135 -64 -238 -183 -297 -59 -30 -76 -33 -152
        -33 -73 0 -93 4 -141 28 -63 31 -126 93 -160 159 -17 32 -24 66 -27 130 -4 80
        -2 92 26 151 43 94 117 159 212 188 51 15 158 10 214 -11z m1824 -866 c214
        -44 354 -167 426 -374 56 -162 58 -193 63 -872 l5 -628 -291 0 -291 0 0 473
        c-1 655 -10 735 -97 828 -52 56 -111 79 -202 79 -122 0 -222 -52 -276 -143
        -54 -93 -57 -128 -62 -704 l-5 -533 -289 0 -289 0 2 923 3 922 278 3 277 2 0
        -127 0 -128 34 51 c19 28 56 70 83 93 56 49 185 115 263 135 76 20 271 20 368
        0z m-1658 -949 l0 -925 -290 0 -290 0 0 925 0 925 290 0 290 0 0 -925z"/>
</g>
</svg>
