<?xml version="1.0" standalone="no"?>
<!DOCTYPE svg PUBLIC "-//W3C//DTD SVG 20010904//EN"
 "http://www.w3.org/TR/2001/REC-SVG-20010904/DTD/svg10.dtd">
<svg version="1.0" xmlns="http://www.w3.org/2000/svg"  width="296.000000pt" height="80.000000pt" viewBox="0 0 296.000000 80.000000"
     preserveAspectRatio="xMidYMid meet">
<g transform="translate(0.000000,80.000000) scale(0.100000,-0.100000)" fill="#ffffff" stroke="none">
    <path d="M20 385 l0 -365 1455 0 1455 0 0 365 0 365 -964 0 -965 0 -3 -42 c-3
        -43 -3 -43 -45 -46 l-43 -3 0 45 0 46 -445 0 -445 0 0 -365z m1301 182 c49
        -32 71 -99 65 -198 -6 -119 -41 -169 -124 -177 -103 -9 -152 54 -152 196 0 88
        10 124 43 161 44 47 114 55 168 18z m342 14 c37 -14 66 -50 78 -95 12 -44 3
        -56 -42 -56 -21 0 -28 7 -38 39 -18 62 -70 67 -90 9 -14 -38 -14 -148 -2 -181
        20 -51 73 -45 91 9 9 27 17 34 38 34 46 0 56 -13 43 -53 -14 -42 -55 -85 -88
        -93 -37 -10 -102 2 -125 23 -58 51 -78 203 -38 290 31 69 104 100 173 74z
        m-1262 -11 c48 -26 65 -129 29 -187 -19 -32 -36 -38 -115 -45 l-30 -3 -3 -72
        -3 -73 -39 0 -40 0 0 195 0 195 91 0 c50 0 99 -5 110 -10z m362 -14 c46 -43
        49 -126 6 -172 l-22 -23 32 -76 c17 -41 31 -79 31 -85 0 -5 -20 -10 -44 -10
        l-44 0 -27 80 c-21 63 -31 80 -46 80 -17 0 -19 -8 -19 -81 l0 -80 -42 3 -43 3
        -3 193 -2 192 98 0 c91 0 101 -2 125 -24z m235 -168 l-3 -193 -42 -3 -43 -3 0
        195 0 196 45 0 45 0 -2 -192z m1082 157 l0 -35 -75 0 -75 0 0 -40 0 -40 60 0
        60 0 0 -35 0 -34 -57 -3 -58 -3 -3 -42 -3 -43 75 0 76 0 0 -40 0 -40 -115 0
        -115 0 0 195 0 195 115 0 115 0 0 -35z m311 25 c45 -25 64 -122 35 -179 -18
        -34 -54 -51 -111 -51 l-45 0 0 -76 0 -75 -42 3 -43 3 -3 193 -2 192 95 0 c53
        0 105 -5 116 -10z m369 -25 c0 -33 -2 -35 -35 -35 l-34 0 -3 -157 -3 -158 -42
        -3 -43 -3 0 160 0 161 -40 0 c-39 0 -40 1 -40 35 l0 35 120 0 120 0 0 -35z"/>
    <path d="M1219 503 c-22 -26 -25 -187 -5 -218 19 -29 51 -33 64 -7 17 30 24
        99 17 157 -10 77 -44 108 -76 68z"/>
</g>
</svg>
