<?xml version="1.0" standalone="no"?>
<!DOCTYPE svg PUBLIC "-//W3C//DTD SVG 20010904//EN" "http://www.w3.org/TR/2001/REC-SVG-20010904/DTD/svg10.dtd">
<svg version="1.0" xmlns="http://www.w3.org/2000/svg"  width="200.000000pt" height="200.000000pt" viewBox="0 0 200.000000 200.000000"
 preserveAspectRatio="xMidYMid meet">
<g transform="translate(0.000000,200.000000) scale(0.100000,-0.100000)" fill="#ffffff" stroke="none">
    <path fill="#ffffff" d="M935 1903 c-38 -43 -77 -88 -88 -100 -19 -21 -19 -22 6 -65 26 -44
        57 -137 57 -169 0 -12 -16 -2 -53 35 -29 30 -67 61 -84 70 l-32 16 -55 -62
        -56 -61 49 -28 c74 -43 125 -107 160 -204 41 -113 48 -192 27 -288 -41 -184
        -169 -257 -320 -183 -189 93 -287 339 -227 576 24 98 92 242 150 318 23 28 38
        52 34 52 -14 0 -121 -88 -181 -149 -360 -370 -362 -958 -3 -1334 182 -190 387
        -283 646 -294 152 -6 242 5 370 48 126 42 225 101 322 192 182 172 286 405
        300 672 16 321 -109 600 -358 796 -44 35 -85 66 -90 67 -5 2 16 -31 46 -74
        103 -144 155 -281 155 -414 0 -274 -220 -531 -410 -480 -57 15 -121 80 -144
        146 -39 111 -28 278 27 398 27 58 111 147 157 166 17 7 30 15 30 19 -1 3 -25
        32 -55 64 l-54 59 -43 -30 c-24 -16 -63 -51 -87 -77 l-43 -47 7 44 c8 49 53
        165 66 174 21 12 5 40 -73 127 -45 51 -82 93 -83 95 -1 1 -33 -33 -70 -75z"/>
</g>
</svg>
