<?xml version="1.0" standalone="no"?>
<!DOCTYPE svg PUBLIC "-//W3C//DTD SVG 20010904//EN" "http://www.w3.org/TR/2001/REC-SVG-20010904/DTD/svg10.dtd">
<svg version="1.0" xmlns="http://www.w3.org/2000/svg" width="95.000000pt" height="114.000000pt" viewBox="0 0 95.000000 114.000000"
 preserveAspectRatio="xMidYMid meet">
<g transform="translate(0.000000,114.000000) scale(0.100000,-0.100000)"  fill="#ffffff" stroke="none">
    <path d="M144 1068 c-67 -72 -144 -218 -144 -270 0 -14 24 -46 62 -85 l62 -62
        -12 -63 c-11 -58 -10 -64 10 -85 12 -13 25 -20 28 -16 4 5 20 68 35 141 l29
        132 103 0 c96 0 103 -1 103 -20 0 -17 -8 -19 -82 -22 l-83 -3 -13 -54 c-7 -29
        -11 -56 -7 -59 3 -3 27 -6 53 -6 37 -1 58 6 90 27 l42 27 0 -40 0 -41 53 3 52
        3 -1 38 c0 37 8 47 22 26 15 -25 95 -51 135 -44 l40 7 -6 41 c-13 73 -16 76
        -108 79 -65 2 -82 6 -82 18 0 12 20 16 106 18 l106 3 27 -128 c34 -158 36
        -160 64 -130 20 21 21 27 10 85 l-12 63 64 64 c59 60 63 66 57 100 -9 57 -76
        180 -131 242 l-51 57 -5 -119 c-6 -145 -12 -150 -95 -75 -50 46 -162 110 -190
        110 -27 0 -137 -63 -189 -109 -84 -75 -90 -71 -96 73 l-5 119 -41 -45z"/>
    <path d="M427 503 c-4 -3 -7 -14 -7 -24 0 -12 -15 -25 -42 -37 -24 -11 -56
        -32 -72 -47 l-30 -28 -37 44 c-21 24 -40 41 -44 37 -4 -3 -11 -35 -18 -71 -13
        -77 -22 -63 173 -254 l125 -123 150 150 c83 82 151 158 153 170 4 25 -17 130
        -26 130 -4 0 -23 -18 -43 -41 l-35 -42 -27 27 c-15 15 -48 36 -72 47 -36 16
        -45 25 -45 44 0 23 -4 25 -48 25 -27 0 -52 -3 -55 -7z m108 -157 c38 -16 55
        -42 55 -84 0 -33 -18 -92 -29 -92 -4 0 -18 29 -31 65 -23 60 -26 65 -55 65
        -28 0 -32 -5 -54 -65 -14 -36 -28 -65 -33 -65 -15 0 -30 84 -22 120 15 60 95
        86 169 56z"/>
</g>
</svg>
